<?xml version="1.0" encoding="UTF-8"?>
<svg xmlns="http://www.w3.org/2000/svg" viewBox="0 0 355 355">
    <defs>
        <style>
            .cls-2{fill:#fff}
        </style>
    </defs>
    <path d="M350 101 256 6c-2-3-6-5-11-5h-14c-3 0-5 3-5 5l1 41c0 2 1 4 3 5 36 14 64 44 77 81 0 2 2 3 4 3l39 1c2 1 5-2 5-5v-20c0-4-2-8-5-11Z"
          style="fill:#f26522"/>
    <path d="M40 178A137 137 0 0 1 213 46l1-45-102-1c-5 0-9 2-12 4L5 98c-3 3-4 7-4 11l-1 79 61 61c-13-20-21-45-21-71Zm274 1c0 69-52 125-118 134l-20 20 22 22h45c4 0 8-1 11-4l95-94c3-3 5-7 5-11v-97h-43c2 10 3 19 3 30ZM113 333l12-12 12 12-12 12zm16 17 4 3 13 1 5-6-10-10-12 12zm-81-54 9-9 12 12-9 9zm32 3 12-12 12 12-13 12zm16 17 12-11 12 12-12 12zm-33-34 12-12 12 12-12 12zm68 23-16-8-2 2 12 12 6-6Zm-99-26 9-9 12 12-9 9zm50 51 9-9 12 12-9 9zm71-13-7-7-8-3-9 9 12 12 12-11Zm-55 30 2 2c3 3 7 4 11 4h5l3-3-11-12-10 9Zm-33-34 9-9 12 12-9 9zm-53-82 12-12 12 12-12 12zM2 209v12l6 6 12-12-12-12-6 6zm27 39 12-12 12 12-12 12zm17 18 12-12 12 12-12 12zM8 236l-6 6c-1 4 1 8 4 11l4 4 9-9-11-12Zm153 112 5 6h24l-17-17-12 11zM15 263l10-9 12 12-10 9zm131 70 12-12 10 10-12 12zm17-16 10 10 13-14a136 136 0 0 1-19 0l-4 4Z"
          class="cls-2"/>
    <path d="m206 152 44-54 1-2h-40c-4 0-7 1-9 4l-43 54-4 4V98c0-1 0-2-2-2h-35c-2 0-2 1-2 2v161c0 3 0 3 3 3h34c2 0 2 0 2-2v-44l1-3 9-11 5-6 1 1 39 64 2 1h43l-1-2-4-7-32-51-22-35v-3l10-12Z"
          class="cls-2"/>
</svg>